<svg xmlns="http://www.w3.org/2000/svg" viewBox="0 0 88 78.09"><defs><style>.cls-1{fill:#2e81d5;}</style></defs><title>Ae1</title><g id="Capa_2" data-name="Capa 2"><g id="Capa_1-2" data-name="Capa 1"><path class="cls-1" d="M0,59v6.4a8.6,8.6,0,0,0,2.93,1.47A34.15,34.15,0,0,0,13.27,68.3a34.17,34.17,0,0,0,10.35-1.42,8.6,8.6,0,0,0,2.93-1.47V59c-3.33,1.58-8.41,2.33-13.28,2.33S3.33,60.59,0,59Z"/><path class="cls-1" d="M0,69.25V75c.45.91,4.93,3.09,13.27,3.09S26.1,75.91,26.55,75V69.25c-3.33,1.58-8.41,2.33-13.28,2.33S3.33,70.83,0,69.25Z"/><path class="cls-1" d="M61.45,48.77v6.4a8.6,8.6,0,0,0,2.93,1.47,34.17,34.17,0,0,0,10.35,1.42,34.15,34.15,0,0,0,10.34-1.42A8.6,8.6,0,0,0,88,55.17v-6.4c-3.33,1.58-8.41,2.33-13.27,2.33S64.78,50.35,61.45,48.77Z"/><path class="cls-1" d="M61.45,59v6.4a8.6,8.6,0,0,0,2.93,1.47A34.17,34.17,0,0,0,74.73,68.3a34.15,34.15,0,0,0,10.34-1.42A8.6,8.6,0,0,0,88,65.41V59c-3.33,1.58-8.41,2.33-13.27,2.33S64.78,60.59,61.45,59Z"/><path class="cls-1" d="M61.45,69.25V75c.45.91,4.93,3.09,13.28,3.09S87.55,75.91,88,75V69.25c-3.33,1.58-8.41,2.33-13.27,2.33S64.78,70.83,61.45,69.25Z"/><path class="cls-1" d="M30.73,28.29v6.39a8.64,8.64,0,0,0,2.93,1.48A34.13,34.13,0,0,0,44,37.57a34.13,34.13,0,0,0,10.34-1.41,8.64,8.64,0,0,0,2.93-1.48V28.29C54,29.87,48.86,30.61,44,30.61S34.05,29.87,30.73,28.29Z"/><path class="cls-1" d="M30.73,38.53v6.39a8.46,8.46,0,0,0,2.93,1.48A34.13,34.13,0,0,0,44,47.81,34.13,34.13,0,0,0,54.34,46.4a8.46,8.46,0,0,0,2.93-1.48V38.53C54,40.11,48.86,40.85,44,40.85S34.05,40.11,30.73,38.53Z"/><path class="cls-1" d="M30.73,48.77v6.4a8.5,8.5,0,0,0,2.93,1.47A34.1,34.1,0,0,0,44,58.06a34.1,34.1,0,0,0,10.34-1.42,8.5,8.5,0,0,0,2.93-1.47v-6.4C54,50.35,48.86,51.1,44,51.1S34.05,50.35,30.73,48.77Z"/><path class="cls-1" d="M30.73,59v6.4a8.5,8.5,0,0,0,2.93,1.47A34.1,34.1,0,0,0,44,68.3a34.1,34.1,0,0,0,10.34-1.42,8.5,8.5,0,0,0,2.93-1.47V59C54,60.59,48.86,61.34,44,61.34S34.05,60.59,30.73,59Z"/><path class="cls-1" d="M30.73,18v6.4a8.5,8.5,0,0,0,2.93,1.47A33.79,33.79,0,0,0,44,27.33a33.79,33.79,0,0,0,10.34-1.42,8.5,8.5,0,0,0,2.93-1.47V18C54,19.62,48.86,20.37,44,20.37S34.05,19.62,30.73,18Z"/><path class="cls-1" d="M30.73,69.25V75c.44.91,4.92,3.09,13.27,3.09S56.83,75.91,57.27,75V69.25C54,70.83,48.86,71.58,44,71.58S34.05,70.83,30.73,69.25Z"/><path class="cls-1" d="M64.72,36.09a33.06,33.06,0,0,0,10,1.37,33,33,0,0,0,10-1.37c2.69-.9,3.27-1.82,3.27-2s-.58-1.1-3.27-2a33.06,33.06,0,0,0-10-1.36,33.09,33.09,0,0,0-10,1.36c-2.69.9-3.27,1.82-3.27,2S62,35.19,64.72,36.09Z"/><path class="cls-1" d="M74.73,40.85c-4.87,0-10-.74-13.28-2.32v6.39a8.56,8.56,0,0,0,2.93,1.48,34.2,34.2,0,0,0,10.35,1.41A34.17,34.17,0,0,0,85.07,46.4,8.56,8.56,0,0,0,88,44.92V38.53C84.67,40.11,79.59,40.85,74.73,40.85Z"/><path class="cls-1" d="M3.27,46.33a33,33,0,0,0,10,1.37,33.06,33.06,0,0,0,10-1.37c2.69-.89,3.27-1.82,3.27-2s-.58-1.1-3.27-2a32.75,32.75,0,0,0-10-1.37,32.73,32.73,0,0,0-10,1.37C.58,43.23,0,44.15,0,44.33S.58,45.44,3.27,46.33Z"/><path class="cls-1" d="M0,48.77v6.4a8.6,8.6,0,0,0,2.93,1.47,34.15,34.15,0,0,0,10.34,1.42,34.17,34.17,0,0,0,10.35-1.42,8.6,8.6,0,0,0,2.93-1.47v-6.4c-3.33,1.58-8.41,2.33-13.28,2.33S3.33,50.35,0,48.77Z"/><path class="cls-1" d="M34,5.36A32.8,32.8,0,0,0,44,6.73,32.8,32.8,0,0,0,54,5.36c2.68-.89,3.26-1.81,3.26-2s-.58-1.11-3.26-2A33.11,33.11,0,0,0,44,0,33.11,33.11,0,0,0,34,1.37c-2.68.89-3.26,1.82-3.26,2S31.31,4.47,34,5.36Z"/><path class="cls-1" d="M30.73,7.8v6.4a8.5,8.5,0,0,0,2.93,1.47A33.79,33.79,0,0,0,44,17.09a33.79,33.79,0,0,0,10.34-1.42,8.5,8.5,0,0,0,2.93-1.47V7.8C54,9.38,48.86,10.13,44,10.13S34.05,9.38,30.73,7.8Z"/></g></g></svg>