<svg xmlns="http://www.w3.org/2000/svg" viewBox="0 0 70.92 77.77"><defs><style>.cls-1{fill:#2e81d5;}</style></defs><title>Ae10</title><g id="Capa_2" data-name="Capa 2"><g id="Capa_1-2" data-name="Capa 1"><path class="cls-1" d="M30,56.88A20.46,20.46,0,1,0,50.46,36.43,20.45,20.45,0,0,0,30,56.88Zm12.46-8a2.74,2.74,0,0,1,3.85,0,2.74,2.74,0,0,1,.8,1.93,2.73,2.73,0,0,1-2.72,2.72,2.74,2.74,0,0,1-1.93-.8,2.7,2.7,0,0,1-.8-1.92A2.74,2.74,0,0,1,42.47,48.89Zm16,16a2.72,2.72,0,1,1,.8-1.93A2.74,2.74,0,0,1,58.45,64.87Zm0-15.94a2.71,2.71,0,0,1,0,3.85l-12,12A2.72,2.72,0,0,1,42.51,61l12.05-12A2.73,2.73,0,0,1,58.41,48.93Z"/><path class="cls-1" d="M24.56,56.88A25.93,25.93,0,0,1,50.46,31c.47,0,.94,0,1.41,0V2.72A2.72,2.72,0,0,0,49.15,0H2.72A2.72,2.72,0,0,0,0,2.72V75a2.72,2.72,0,0,0,2.72,2.73H35.16A25.9,25.9,0,0,1,24.56,56.88ZM15.4,14.46H34.68a2.73,2.73,0,1,1,0,5.45H15.4a2.73,2.73,0,0,1,0-5.45Zm0,14.47H34.68a2.72,2.72,0,1,1,0,5.44H15.4a2.72,2.72,0,0,1,0-5.44Zm4.82,19.91H15.4a2.73,2.73,0,0,1,0-5.45h4.82a2.73,2.73,0,0,1,0,5.45Z"/></g></g></svg>