<svg xmlns="http://www.w3.org/2000/svg" viewBox="0 0 77.77 77.77"><defs><style>.cls-1{fill:#fb4851;}</style></defs><title>Ae11</title><g id="Capa_2" data-name="Capa 2"><g id="Capa_1-2" data-name="Capa 1"><path class="cls-1" d="M43.34,40c-.5.59-1,1.17-1.58,1.73S40.62,42.84,40,43.34l3.23,3.23,3.31-3.31Z"/><path class="cls-1" d="M76.6,68.71l-1-1-7.9,7.9,1,1a4,4,0,0,0,5.64,0l2.25-2.25A4,4,0,0,0,76.6,68.71Z"/><path class="cls-1" d="M38.82,6.65a22.75,22.75,0,1,0,0,32.17A22.71,22.71,0,0,0,38.82,6.65ZM33.39,33.39a15.08,15.08,0,1,1,0-21.32A15,15,0,0,1,33.39,33.39Z"/><path class="cls-1" d="M54.6,46.7a4,4,0,0,0-5.64,0L46.7,49a4,4,0,0,0,0,5.64l1,1,7.9-7.9Z"/><rect class="cls-1" x="56.07" y="51.72" width="11.17" height="19.87" transform="translate(-25.54 61.65) rotate(-45)"/><path class="cls-1" d="M21.19,19.63a1,1,0,0,0,.21.64,2.46,2.46,0,0,0,.69.52V18.71C21.49,18.82,21.19,19.13,21.19,19.63Z"/><path class="cls-1" d="M23,23.84v2.21A1,1,0,0,0,24,25a.87.87,0,0,0-.23-.62A3.18,3.18,0,0,0,23,23.84Z"/><path class="cls-1" d="M22.44,10.48a12,12,0,1,0,12,12A12.06,12.06,0,0,0,22.44,10.48Zm2.84,16.65a3.51,3.51,0,0,1-2.24,1V30h-.95V28.19a6.29,6.29,0,0,1-3-.76V25.09a6.4,6.4,0,0,0,1.46.67,6.17,6.17,0,0,0,1.52.35V23.37l-.47-.23a5.15,5.15,0,0,1-1.95-1.5,3.41,3.41,0,0,1-.58-2,3,3,0,0,1,.79-2.11,3.51,3.51,0,0,1,2.21-1V15.16H23v1.32a6.47,6.47,0,0,1,2.88.82l-.66,2.07A6.09,6.09,0,0,0,23,18.68v2.61A9.56,9.56,0,0,1,25,22.44a3.11,3.11,0,0,1,.84,1.07,3.58,3.58,0,0,1-.53,3.62Z"/></g></g></svg>