<svg xmlns="http://www.w3.org/2000/svg" viewBox="0 0 85 72.29"><defs><style>.cls-1{fill:#fb4851;}</style></defs><title>Ae13</title><g id="Capa_2" data-name="Capa 2"><g id="Capa_1-2" data-name="Capa 1"><path class="cls-1" d="M83.58,32a5.2,5.2,0,0,1-5-3.74,30.53,30.53,0,0,0-12.75-16.7,5.18,5.18,0,0,1-2.34-4.31V1.42A1.4,1.4,0,0,0,61.89,0a13.83,13.83,0,0,0-8.12,3.91,5.19,5.19,0,0,1-4.47,1.6,42.1,42.1,0,0,0-5.37-.35c-19.69,0-35.7,13.61-35.7,30.33C8.23,40.43,10,45,12,49.1,15.1,55.66,21.29,67,23.81,71.56a1.41,1.41,0,0,0,1.24.73h5.1a1.43,1.43,0,0,0,1.42-1.42V66.58a5.16,5.16,0,0,1,6-5.12,42.57,42.57,0,0,0,12.55,0,6.47,6.47,0,0,1,.76-.05A5.17,5.17,0,0,1,56,66.62v4.25a1.43,1.43,0,0,0,1.42,1.42h5.31a1.42,1.42,0,0,0,1.17-.62c2.12-3.12,7.27-10.83,9.2-15.07,1.35-3,2.27-5.34,3.15-7.62l.51-1.32a5.15,5.15,0,0,1,4.82-3.29h2A1.43,1.43,0,0,0,85,43V33.44A1.42,1.42,0,0,0,83.58,32ZM49,18.2H38.62a2.2,2.2,0,0,1,0-4.39H49a2.2,2.2,0,0,1,0,4.39ZM67,31.7a2.2,2.2,0,0,1-3.1,0A2.2,2.2,0,0,1,65.41,28,2.2,2.2,0,0,1,67,31.7Z"/><path class="cls-1" d="M4.56,11.29a2.19,2.19,0,0,0-4.29-.93C-.51,13.94,0,20.94,6.88,23.77a31.6,31.6,0,0,1,2-3.93C3.41,17.79,4.42,12,4.56,11.29Z"/></g></g></svg>