<svg xmlns="http://www.w3.org/2000/svg" viewBox="0 0 83 42.85"><defs><style>.cls-1{fill:#06c;}</style></defs><title>Ae3</title><g id="Capa_2" data-name="Capa 2"><g id="Capa_1-2" data-name="Capa 1"><path class="cls-1" d="M67.74,11.25H48.3a16,16,0,0,1,3.32,10.18A16,16,0,0,1,48.3,31.6H67.74a6.46,6.46,0,0,1,3.78-3.79V15A6.46,6.46,0,0,1,67.74,11.25ZM67.16,23a2.26,2.26,0,0,1-1.58.65,2.24,2.24,0,1,1,0-4.47A2.23,2.23,0,0,1,67.16,23Z"/><path class="cls-1" d="M15.26,11.25A6.46,6.46,0,0,1,11.48,15V27.81a6.46,6.46,0,0,1,3.78,3.79H34.7a16,16,0,0,1-3.32-10.17A16,16,0,0,1,34.7,11.25ZM19,23a2.26,2.26,0,1,1,.65-1.58A2.29,2.29,0,0,1,19,23Z"/><path class="cls-1" d="M80.76,0H2.24A2.24,2.24,0,0,0,0,2.24V40.62a2.23,2.23,0,0,0,2.24,2.23H80.76A2.23,2.23,0,0,0,83,40.62V2.24A2.24,2.24,0,0,0,80.76,0ZM76,29.65a2.23,2.23,0,0,1-2.23,2.23,2,2,0,0,0-2,1.95,2.24,2.24,0,0,1-2.24,2.24H13.43a2.24,2.24,0,0,1-2.24-2.24,2,2,0,0,0-1.95-1.95A2.23,2.23,0,0,1,7,29.65V13.2A2.23,2.23,0,0,1,9.24,11a2,2,0,0,0,1.95-2,2.24,2.24,0,0,1,2.24-2.24H69.57A2.24,2.24,0,0,1,71.81,9a2,2,0,0,0,2,2A2.23,2.23,0,0,1,76,13.2Z"/><path class="cls-1" d="M41.5,12.28c-3.06,0-5.65,4.19-5.65,9.15s2.59,9.15,5.65,9.15,5.65-4.19,5.65-9.15S44.56,12.28,41.5,12.28Z"/></g></g></svg>