<svg xmlns="http://www.w3.org/2000/svg" viewBox="0 0 66.39 74.19"><defs><style>.cls-1{fill:#fb4851;}</style></defs><title>Ae4</title><g id="Capa_2" data-name="Capa 2"><g id="Capa_1-2" data-name="Capa 1"><rect class="cls-1" x="29.34" y="52.35" width="6.74" height="10.05"/><rect class="cls-1" x="29.34" y="31.29" width="6.74" height="10.05"/><rect class="cls-1" x="11.79" y="31.29" width="6.74" height="10.05"/><rect class="cls-1" x="46.89" y="31.29" width="6.74" height="31.1"/><rect class="cls-1" x="11.79" y="52.35" width="6.74" height="10.05"/><path class="cls-1" d="M58.29,0H8.1A8.1,8.1,0,0,0,0,8.1v58a8.11,8.11,0,0,0,8.1,8.1H58.29a8.12,8.12,0,0,0,8.1-8.1V8.1A8.11,8.11,0,0,0,58.29,0ZM22.52,64.39a2,2,0,0,1-2,2H9.8a2,2,0,0,1-2-2v-14a2,2,0,0,1,2-2H20.53a2,2,0,0,1,2,2Zm0-21.06a2,2,0,0,1-2,2H9.8a2,2,0,0,1-2-2v-14a2,2,0,0,1,2-2H20.53a2,2,0,0,1,2,2ZM40.07,64.39a2,2,0,0,1-2,2H27.34a2,2,0,0,1-2-2v-14a2,2,0,0,1,2-2H38.08a2,2,0,0,1,2,2Zm0-21.06a2,2,0,0,1-2,2H27.34a2,2,0,0,1-2-2v-14a2,2,0,0,1,2-2H38.08a2,2,0,0,1,2,2ZM57.62,64.39a2,2,0,0,1-2,2H44.89a2,2,0,0,1-2-2V29.29a2,2,0,0,1,2-2H55.62a2,2,0,0,1,2,2Zm1-42.89a2,2,0,0,1-2,2H9.8a2,2,0,0,1-2-2V9.8a2,2,0,0,1,2-2H56.59a2,2,0,0,1,2,2V21.5Z"/><rect class="cls-1" x="11.79" y="11.79" width="42.8" height="7.71"/></g></g></svg>