<svg xmlns="http://www.w3.org/2000/svg" viewBox="0 0 73.33 76.96"><defs><style>.cls-1{fill:#2e81d5;}</style></defs><title>Ae5</title><g id="Capa_2" data-name="Capa 2"><g id="Capa_1-2" data-name="Capa 1"><path class="cls-1" d="M64.49,16.51H8.84A2.14,2.14,0,0,0,6.7,18.65V54.31a2.14,2.14,0,0,0,2.14,2.14H64.49a2.14,2.14,0,0,0,2.14-2.14V18.65A2.14,2.14,0,0,0,64.49,16.51Zm-5.83,14a2,2,0,0,1-4,0V27.34L38.08,43.9a2,2,0,0,1-2.53.25L24.93,37.07,14.11,47.89a2,2,0,1,1-2.85-2.84l12-12a2,2,0,0,1,2.54-.25l10.62,7.08L51.8,24.5H48.65a2,2,0,0,1,0-4h8a2,2,0,0,1,2,2Z"/><path class="cls-1" d="M52.47,60.47H46.85L48.59,64H24.74l1.74-3.48H20.86L14.43,73.33a2.52,2.52,0,0,0,1.13,3.37,2.48,2.48,0,0,0,1.12.26,2.52,2.52,0,0,0,2.25-1.39l3.3-6.6H51.1l3.3,6.6A2.52,2.52,0,0,0,56.65,77a2.48,2.48,0,0,0,1.12-.26,2.51,2.51,0,0,0,1.12-3.37Z"/><path class="cls-1" d="M70.82,8H39.18V2.51a2.52,2.52,0,0,0-5,0V8H2.51a2.52,2.52,0,0,0,0,5H70.82a2.52,2.52,0,0,0,0-5Z"/></g></g></svg>