<svg xmlns="http://www.w3.org/2000/svg" viewBox="0 0 103.58 83.42"><defs><style>.cls-1{fill:#2e81d5;}</style></defs><title>Ae6</title><g id="Capa_2" data-name="Capa 2"><g id="Capa_1-2" data-name="Capa 1"><path class="cls-1" d="M23.16,38.86c5.24,0,10.39-7.27,10.39-14.67,0-6.31-4.08-10.38-10.39-10.38S12.78,17.88,12.78,24.19C12.78,31.59,17.92,38.86,23.16,38.86Z"/><path class="cls-1" d="M80.42,38.86c5.24,0,10.39-7.27,10.39-14.67,0-6.31-4.08-10.38-10.39-10.38S70,17.88,70,24.19C70,31.59,75.18,38.86,80.42,38.86Z"/><path class="cls-1" d="M19.58,43.15a9.37,9.37,0,0,1-1.88,5.09,5.48,5.48,0,0,0,3.36,4.91,21.16,21.16,0,0,1,7.43-5.1,9.5,9.5,0,0,1-1.74-4.9,10.84,10.84,0,0,1-7.17,0Z"/><path class="cls-1" d="M76.83,43.15a9.33,9.33,0,0,1-1.74,4.9,21.07,21.07,0,0,1,7.43,5.1,5.49,5.49,0,0,0,3.37-4.91A9.21,9.21,0,0,1,84,43.15a10.87,10.87,0,0,1-7.18,0Z"/><path class="cls-1" d="M103.56,69.71c-.53-4.41-1-7.8-1.27-9.81a10.49,10.49,0,0,0-8-8.26l-3.86-1a10.36,10.36,0,0,1-5,6.48,18.23,18.23,0,0,1,2.06,6.05c.34,2.28.79,5.69,1.34,10.15h11.48a3.27,3.27,0,0,0,3.24-3.65Z"/><path class="cls-1" d="M13.12,50.68l-3.86,1a10.46,10.46,0,0,0-8,8.26C1,61.91.56,65.3,0,69.71a3.21,3.21,0,0,0,.8,2.55,3.23,3.23,0,0,0,2.44,1.1H14.74c.55-4.46,1-7.87,1.35-10.15a18.23,18.23,0,0,1,2.06-6.05A10.41,10.41,0,0,1,13.12,50.68Z"/><path class="cls-1" d="M82.65,63.93c-.85-5.69-5.51-10.54-11.59-12.06l-6.2-1.54a13.29,13.29,0,0,1-26.14,0l-6.2,1.54c-6.08,1.52-10.73,6.37-11.59,12.06-.42,2.8-1,7.33-1.74,13.47a5.37,5.37,0,0,0,5.33,6H79.06a5.38,5.38,0,0,0,5.34-6C83.66,71.26,83.07,66.73,82.65,63.93Z"/><path class="cls-1" d="M51.79,36.14c8.53,0,15.14-11.29,15.14-21C66.93,5.94,61,0,51.79,0S36.65,5.94,36.65,15.14C36.65,24.85,43.27,36.14,51.79,36.14Z"/><path class="cls-1" d="M46,39.84a12.51,12.51,0,0,1-2.63,7.92,8.4,8.4,0,1,0,16.8,0,12.57,12.57,0,0,1-2.63-7.92,14.47,14.47,0,0,1-11.54,0Z"/></g></g></svg>