<svg xmlns="http://www.w3.org/2000/svg" viewBox="0 0 86 50.9"><defs><style>.cls-1{fill:#fb4851;}</style></defs><title>Ae9</title><g id="Capa_2" data-name="Capa 2"><g id="Capa_1-2" data-name="Capa 1"><rect class="cls-1" x="17.87" y="9.53" width="50.26" height="6.73"/><path class="cls-1" d="M84.41,44.8H1.59A1.56,1.56,0,0,0,.26,47.21,8.17,8.17,0,0,0,7.09,50.9H78.91a8.2,8.2,0,0,0,6.84-3.69A1.57,1.57,0,0,0,84.41,44.8Z"/><path class="cls-1" d="M9.88,40.64H76.12a3,3,0,0,0,3-3V2.44h0A2.44,2.44,0,0,0,76.64,0H9.36A2.44,2.44,0,0,0,6.92,2.44V37.68A3,3,0,0,0,9.88,40.64Zm60.33-4.53H56.37a2.08,2.08,0,1,1,0-4.16H70.21a2.08,2.08,0,1,1,0,4.16Zm0-7.77H56.37a2.08,2.08,0,1,1,0-4.16H70.21a2.08,2.08,0,1,1,0,4.16ZM13.71,7.45a2.08,2.08,0,0,1,2.08-2.08H70.21a2.08,2.08,0,0,1,2.08,2.08V18.33a2.08,2.08,0,0,1-2.08,2.08H15.79a2.08,2.08,0,0,1-2.08-2.08Zm2.08,16.73H48.13a2.08,2.08,0,0,1,0,4.16H15.79a2.08,2.08,0,0,1,0-4.16Zm0,7.77H48.13a2.08,2.08,0,0,1,0,4.16H15.79a2.08,2.08,0,1,1,0-4.16Z"/></g></g></svg>