<svg xmlns="http://www.w3.org/2000/svg" viewBox="0 0 76.36 67.01"><defs><style>.cls-1{fill:#2e81d5;}</style></defs><title>BS1</title><g id="Capa_2" data-name="Capa 2"><g id="Capa_1-2" data-name="Capa 1"><path class="cls-1" d="M0,20.89a17.94,17.94,0,0,1,1.32-1.67q8.94-9,17.92-17.93c1.43-1.43,2.52-1.41,4,0C25,3.05,26.8,4.78,28.6,6.52l.08.36a3.37,3.37,0,0,0-.72.41q-3.57,3.54-7.12,7.11a6.64,6.64,0,0,0-1.11,8.51A9.54,9.54,0,0,0,25.68,27a11,11,0,0,0,10.46-2.59c1.4-1.25,2.4-1.26,3.77,0a11.18,11.18,0,0,0,13.39,1.4,2.86,2.86,0,0,1,.37-.21c.15.13.32.27.47.42L67,38.83a3.45,3.45,0,0,1,1.07,3.78,3.34,3.34,0,0,1-5.54,1.22c-1.55-1.47-3-3-4.55-4.52-.33-.33-.65-.68-1-1a2.21,2.21,0,0,0-3.15,0,2.16,2.16,0,0,0,0,3.09c1.74,1.8,3.53,3.56,5.31,5.33a3.46,3.46,0,0,1,1.18,2.93,3.34,3.34,0,0,1-5.66,2.07c-1.55-1.5-3.07-3-4.6-4.57-.31-.32-.62-.65-.95-.95a2.23,2.23,0,0,0-3.15,0,2.2,2.2,0,0,0,0,3.2c1.71,1.76,3.49,3.46,5.19,5.24a4.8,4.8,0,0,1,1.11,1.72,3.23,3.23,0,0,1-1.4,3.76,3.28,3.28,0,0,1-4-.31c-1-1-2-2-3-3a7.92,7.92,0,0,0-5.45-2.59.75.75,0,0,1-.55-.48c-.25-3.61-2.2-5.89-5.57-7.15,1.4-3.32,1.14-6.46-1.45-9.06s-5.69-2.87-9.1-1.45a7.5,7.5,0,0,0-6.06-5.46A7.87,7.87,0,0,0,8,33.59c-.25-.71-.47-1.3-.66-1.89a12.09,12.09,0,0,0-3-5c-1.08-1.06-2.15-2.14-3.18-3.25A14.57,14.57,0,0,1,0,21.93Z"/><path class="cls-1" d="M69.1,34.61,53.87,19.37l-.63.59a8,8,0,0,1-8.78,1.58,19.46,19.46,0,0,1-3-1.62,6.65,6.65,0,0,0-7.65.59,9.07,9.07,0,0,1-3.45,2.12,6.64,6.64,0,0,1-6.53-1.7,2.17,2.17,0,0,1,.07-3.25c1.14-1.17,2.31-2.32,3.47-3.48,1.74-1.74,3.49-3.47,5.22-5.22a7.32,7.32,0,0,1,5.54-2.29c2.31,0,4.62,0,6.93,0A5.32,5.32,0,0,0,49.24,5C50.58,3.59,52,2.24,53.35.88a2.26,2.26,0,0,1,3.58,0L75.47,19.43a2.27,2.27,0,0,1,0,3.63l-4.74,4.75a5.06,5.06,0,0,0-1.44,4.7,12.61,12.61,0,0,1,0,2Z"/><path class="cls-1" d="M17.91,54.35c-1.82-.06-2.89-.7-3.47-2A3.08,3.08,0,0,1,15,48.82c1.18-1.28,2.43-2.48,3.66-3.71,1.49-1.5,3-3,4.49-4.46A3.12,3.12,0,0,1,26.62,40a3.2,3.2,0,0,1,2.09,2.83,3.45,3.45,0,0,1-1.17,2.86c-2.5,2.48-5,5-7.48,7.47a2.59,2.59,0,0,1-.5.44C18.91,53.9,18.25,54.19,17.91,54.35Z"/><path class="cls-1" d="M10,46.44c-1.79-.07-2.83-.69-3.42-1.95A3,3,0,0,1,7,41c1.69-1.81,3.44-3.57,5.26-5.26a3.24,3.24,0,0,1,4.45.22,3.28,3.28,0,0,1,.21,4.46c-1.68,1.79-3.42,3.53-5.22,5.19A5.4,5.4,0,0,1,10,46.44Z"/><path class="cls-1" d="M25.81,62.24c-1.81,0-2.85-.66-3.44-1.92a3,3,0,0,1,.46-3.54q2.52-2.69,5.2-5.21a3.31,3.31,0,0,1,4.67,4.66q-2.51,2.7-5.21,5.2A5.16,5.16,0,0,1,25.81,62.24Z"/><path class="cls-1" d="M36.83,67a3.52,3.52,0,0,1-3.37-1.9,3,3,0,0,1,.36-3.49A15.84,15.84,0,0,1,36,59.41a3.32,3.32,0,0,1,4.63,4.7,14.1,14.1,0,0,1-2.17,2.13A6.83,6.83,0,0,1,36.83,67Z"/></g></g></svg>