<svg xmlns="http://www.w3.org/2000/svg" viewBox="0 0 65.81 91.07"><defs><style>.cls-1{fill:#fb4851;}</style></defs><title>BS2</title><g id="Capa_2" data-name="Capa 2"><g id="Capa_1-2" data-name="Capa 1"><path class="cls-1" d="M43.16,68a2.47,2.47,0,0,1-1.74-.72l-8.8-8.8a12.69,12.69,0,1,0,23,9.52Z"/><path class="cls-1" d="M43.16,52.82A12.6,12.6,0,0,0,36.1,55l8.08,8.08H55.62A12.72,12.72,0,0,0,43.16,52.82Z"/><path class="cls-1" d="M63.18,10.1H53.05v3a7.14,7.14,0,0,1-7.13,7.12h-26a7.14,7.14,0,0,1-7.12-7.12v-3H2.62A2.63,2.63,0,0,0,0,12.73V88.45a2.63,2.63,0,0,0,2.62,2.62H63.19a2.63,2.63,0,0,0,2.62-2.62V12.73A2.63,2.63,0,0,0,63.18,10.1ZM7.64,27.69H32.9a2.46,2.46,0,1,1,0,4.92H7.64a2.46,2.46,0,0,1,0-4.92ZM22.8,52.82H7.64a2.46,2.46,0,0,1,0-4.92H22.8a2.46,2.46,0,0,1,0,4.92Zm0-10.11H7.64a2.46,2.46,0,0,1,0-4.92H22.8a2.46,2.46,0,0,1,0,4.92ZM43.16,83.13A17.62,17.62,0,1,1,60.78,65.51,17.63,17.63,0,0,1,43.16,83.13Z"/><path class="cls-1" d="M19.89,15.29h26a2.21,2.21,0,0,0,2.21-2.2V7.25a2.21,2.21,0,0,0-2.21-2.2H38A2.46,2.46,0,0,1,35.5,2.59a2.6,2.6,0,0,0-5.19,0,2.46,2.46,0,0,1-2.46,2.46h-8a2.21,2.21,0,0,0-2.21,2.2v5.84A2.21,2.21,0,0,0,19.89,15.29Z"/></g></g></svg>