<svg xmlns="http://www.w3.org/2000/svg" viewBox="0 0 88.53 72.75"><defs><style>.cls-1{fill:#2e81d5;}</style></defs><title>BS3</title><g id="Capa_2" data-name="Capa 2"><g id="Capa_1-2" data-name="Capa 1"><path class="cls-1" d="M22.27,29.33,40.84,7,58.68,21.84,40.16,44.15Z"/><path class="cls-1" d="M5.56,63.77c1.18-3.52,1.84-4,5.59-4H42.62c3.25,0,4.16.7,5.05,3.91.41.05.85.12,1.3.14A4.54,4.54,0,0,1,52.8,70.9c-.91,1.56-2.41,1.85-4.09,1.85q-16.51,0-33,0c-3.7,0-7.39,0-11.09,0C1.37,72.7,0,71.41,0,68.38S1.3,64,4.43,63.83C4.81,63.82,5.2,63.79,5.56,63.77Z"/><path class="cls-1" d="M49,35.83,52.13,32l14.6,11.22L86.34,58.29c2.36,1.81,2.86,4.33,1.29,6.35s-4.2,2.09-6.44.09q-11.73-10.47-23.42-21Z"/><rect class="cls-1" x="38.79" y="7.22" width="28.02" height="6.59" rx="2" transform="translate(18.15 -30.69) rotate(38.67)"/><rect class="cls-1" x="14.07" y="36.89" width="28.02" height="6.59" rx="2" transform="translate(31.27 -8.73) rotate(38.67)"/></g></g></svg>