<svg xmlns="http://www.w3.org/2000/svg" viewBox="0 0 77.77 77.77"><defs><style>.cls-1{fill:#06c;}</style></defs><title>Diagnosticos</title><g id="Capa_2" data-name="Capa 2"><g id="Capa_1-2" data-name="Capa 1"><path class="cls-1" d="M43.34,40c-.5.59-1,1.17-1.58,1.73S40.62,42.84,40,43.34l3.23,3.23,3.31-3.31Z"/><path class="cls-1" d="M76.6,68.71l-1-1-7.9,7.9,1,1a4,4,0,0,0,5.64,0l2.25-2.25A4,4,0,0,0,76.6,68.71Z"/><path class="cls-1" d="M38.82,6.65a22.75,22.75,0,1,0,0,32.17A22.71,22.71,0,0,0,38.82,6.65ZM33.39,33.39a15.08,15.08,0,1,1,0-21.32A15,15,0,0,1,33.39,33.39Z"/><path class="cls-1" d="M54.6,46.7a4,4,0,0,0-5.64,0L46.7,49a4,4,0,0,0,0,5.64l1,1,7.9-7.9Z"/><rect class="cls-1" x="56.07" y="51.72" width="11.17" height="19.87" transform="translate(-25.54 61.65) rotate(-45)"/></g></g></svg>