<svg xmlns="http://www.w3.org/2000/svg" viewBox="0 0 74.62 77.65"><defs><style>.cls-1{fill:#fb4851;}</style></defs><title>E1_1</title><g id="Capa_2" data-name="Capa 2"><g id="Capa_1-2" data-name="Capa 1"><path class="cls-1" d="M42.72,11.27H3.4A3.4,3.4,0,0,0,0,14.67V74.13a3.41,3.41,0,0,0,3.4,3.41H42.72a3.41,3.41,0,0,0,3.4-3.41V14.67A3.4,3.4,0,0,0,42.72,11.27ZM38.17,71.7H8a2.12,2.12,0,1,1,0-4.24H38.17a2.12,2.12,0,0,1,0,4.24Zm0-10.07H8a2.12,2.12,0,1,1,0-4.24H38.17a2.12,2.12,0,1,1,0,4.24Zm0-10.07H8a2.12,2.12,0,1,1,0-4.24H38.17a2.12,2.12,0,1,1,0,4.24Zm0-10.07H8a2.13,2.13,0,0,1,0-4.25H38.17a2.13,2.13,0,0,1,0,4.25Zm0-10.08H8a2.12,2.12,0,0,1,0-4.24H38.17a2.12,2.12,0,1,1,0,4.24Zm0-10.07H8A2.12,2.12,0,1,1,8,17.1H38.17a2.12,2.12,0,0,1,0,4.24Z"/><path class="cls-1" d="M54.34,0H13.48a3.41,3.41,0,0,0-3.41,3.4V7H42.72a7.66,7.66,0,0,1,7.65,7.65V67.46h4a3.4,3.4,0,0,0,3.4-3.4V3.4A3.4,3.4,0,0,0,54.34,0Z"/><path class="cls-1" d="M74.62,6.1c0-3.36-2.44-6.1-5.43-6.1s-5.44,2.74-5.44,6.1V9.65H74.62V6.1Z"/><path class="cls-1" d="M63.75,13.89V70h0a1.59,1.59,0,0,0,.26.88l3.9,6.08a1.5,1.5,0,0,0,2.55,0l3.9-6.08a1.59,1.59,0,0,0,.26-.88V13.89Z"/></g></g></svg>