<svg xmlns="http://www.w3.org/2000/svg" viewBox="0 0 85 85"><defs><style>.cls-1{fill:#06c;}</style></defs><title>E2</title><g id="Capa_2" data-name="Capa 2"><g id="Capa_1-2" data-name="Capa 1"><path class="cls-1" d="M82.39,31.91h-7a34.69,34.69,0,0,0-2.15-5.16l5-5a2.6,2.6,0,0,0,0-3.69L66.91,6.81a2.6,2.6,0,0,0-3.69,0l-5,5a34.64,34.64,0,0,0-5.16-2.14v-7A2.61,2.61,0,0,0,50.48,0h-16a2.61,2.61,0,0,0-2.61,2.61v7a34.64,34.64,0,0,0-5.16,2.14l-5-5a2.61,2.61,0,0,0-3.69,0L6.81,18.09a2.61,2.61,0,0,0,0,3.69l5,5a34.64,34.64,0,0,0-2.14,5.16h-7A2.61,2.61,0,0,0,0,34.52v16a2.61,2.61,0,0,0,2.61,2.61h7a33.66,33.66,0,0,0,2.15,5.16l-5,5a2.6,2.6,0,0,0,0,3.69L18.09,78.19a2.6,2.6,0,0,0,3.69,0l5-5a34.69,34.69,0,0,0,5.16,2.15v7A2.61,2.61,0,0,0,34.52,85h16a2.61,2.61,0,0,0,2.61-2.61v-7a34.69,34.69,0,0,0,5.16-2.15l5,5a2.6,2.6,0,0,0,3.69,0L78.19,66.91a2.6,2.6,0,0,0,0-3.69l-5-5a33.66,33.66,0,0,0,2.15-5.16h7A2.61,2.61,0,0,0,85,50.48v-16A2.61,2.61,0,0,0,82.39,31.91ZM42.5,54.25A11.75,11.75,0,1,1,54.25,42.5,11.76,11.76,0,0,1,42.5,54.25Z"/></g></g></svg>