<svg xmlns="http://www.w3.org/2000/svg" viewBox="0 0 57.24 79.63"><defs><style>.cls-1{fill:#fb4851;}</style></defs><title>E3</title><g id="Capa_2" data-name="Capa 2"><g id="Capa_1-2" data-name="Capa 1"><path class="cls-1" d="M33,30.11a2.2,2.2,0,1,0,2.21,2.2A2.21,2.21,0,0,0,33,30.11Z"/><path class="cls-1" d="M15.41,47.72a2.21,2.21,0,1,0,2.2,2.2A2.21,2.21,0,0,0,15.41,47.72Z"/><path class="cls-1" d="M19.63,13.49h18a1.87,1.87,0,0,0,1.86-1.87V4.83h-6a2.2,2.2,0,0,1-2.21-2.2,2.63,2.63,0,1,0-5.26,0,2.2,2.2,0,0,1-2.2,2.2h-6v6.79A1.87,1.87,0,0,0,19.63,13.49Z"/><path class="cls-1" d="M55,8.09H43.88v3.53a6.28,6.28,0,0,1-6.27,6.27h-18a6.27,6.27,0,0,1-6.26-6.27V8.09H2.2A2.21,2.21,0,0,0,0,10.3V77.43a2.2,2.2,0,0,0,2.2,2.2H55a2.19,2.19,0,0,0,2.2-2.2V10.3A2.2,2.2,0,0,0,55,8.09ZM41.83,56.53A6.6,6.6,0,0,1,37.6,44.86l-3.81-6a6.49,6.49,0,0,1-.77.05,6.61,6.61,0,0,1-2.84-.65l-8.81,8.81a6.6,6.6,0,1,1-6-3.76,6.51,6.51,0,0,1,2.85.65l8.8-8.81a6.61,6.61,0,1,1,12.57-2.85,6.56,6.56,0,0,1-1.87,4.6l4.08,6.41a6.61,6.61,0,0,1,0,13.21Z"/><path class="cls-1" d="M41.83,47.72a2.21,2.21,0,1,0,2.2,2.2A2.21,2.21,0,0,0,41.83,47.72Z"/></g></g></svg>