<svg xmlns="http://www.w3.org/2000/svg" viewBox="0 0 70 70"><defs><style>.cls-1{fill:#06c;}</style></defs><title>E4</title><g id="Capa_2" data-name="Capa 2"><g id="Capa_1-2" data-name="Capa 1"><path class="cls-1" d="M58.36,25H11.64a2.4,2.4,0,0,0-2.4,2.4V42.62a2.39,2.39,0,0,0,2.4,2.4H58.36a2.4,2.4,0,0,0,2.4-2.4V27.38a2.39,2.39,0,0,0-2.4-2.4Z"/><path class="cls-1" d="M62.11,0H7.89A7.9,7.9,0,0,0,0,7.89V62.11A7.9,7.9,0,0,0,7.89,70H62.11A7.9,7.9,0,0,0,70,62.11V7.89A7.9,7.9,0,0,0,62.11,0Zm2.1,42.62a5.85,5.85,0,0,1-5.85,5.85H11.64a5.86,5.86,0,0,1-5.86-5.85V27.38a5.85,5.85,0,0,1,5.85-5.85H58.36a5.84,5.84,0,0,1,5.85,5.85Z"/></g></g></svg>