<svg xmlns="http://www.w3.org/2000/svg" viewBox="0 0 48.22 85.19"><defs><style>.cls-1{fill:#fb4851;}</style></defs><title>Implementaciones</title><g id="Capa_2" data-name="Capa 2"><g id="Capa_1-2" data-name="Capa 1"><path class="cls-1" d="M15.39,80.21a5,5,0,0,0,5,5h7.46a5,5,0,0,0,5-5v-1H15.39Z"/><path class="cls-1" d="M24.11,0A24.14,24.14,0,0,0,0,24.11C0,31.88,5.88,41,10.17,47.67l1,1.51c2,3.15,3.26,7.13,3.92,12.53a5.88,5.88,0,0,0,5.82,5.16h6.46a5.87,5.87,0,0,0,5.82-5.16c.66-5.4,1.91-9.38,3.93-12.53l1-1.51C42.35,41,48.22,31.88,48.22,24.11A24.14,24.14,0,0,0,24.11,0ZM30,25.08a2.08,2.08,0,0,1,1.41,3.55L19.74,40a2.07,2.07,0,0,1-1.45.59A2.1,2.1,0,0,1,16.81,40a2.08,2.08,0,0,1,0-2.93L25,29.13,18.25,29a2.08,2.08,0,0,1-1.88-1.3,2.05,2.05,0,0,1,.46-2.23L28.46,13.82a2.07,2.07,0,0,1,2.93,2.93L23.19,25Z"/><path class="cls-1" d="M20.88,71a9.93,9.93,0,0,1-5.49-1.65v5.75H32.83V69.36A9.89,9.89,0,0,1,27.34,71Z"/></g></g></svg>