<svg xmlns="http://www.w3.org/2000/svg" viewBox="0 0 287.06 224"><defs><style>.cls-1{fill:#2e81d5;}</style></defs><title>MenA</title><g id="Capa_2" data-name="Capa 2"><g id="Capa_1-2" data-name="Capa 1"><path class="cls-1" d="M144,124.8c6.4,0,12.8-3.2,17.6-6.4l112-112C268.8,1.6,262.4,0,256,0H32C25.6,0,19.2,1.6,14.4,4.8l112,112C131.2,121.6,137.6,124.8,144,124.8Zm28.8,4.8c-8,8-17.6,11.2-28.8,11.2s-20.8-3.2-28.8-11.2l-6.4-6.4-96,96A42.6,42.6,0,0,0,32,224H256c6.4,0,12.8-1.6,17.6-4.8l-96-96Zm112-112-96,94.4,94.4,94.4c3.2-4.8,3.2-9.6,3.2-14.4V32C288,27.2,286.4,22.4,284.8,17.6ZM3.2,17.6A38.21,38.21,0,0,0,0,32V192a38.21,38.21,0,0,0,3.2,14.4L97.6,112Z"/></g></g></svg>