<svg xmlns="http://www.w3.org/2000/svg" viewBox="0 0 77 77"><defs><style>.cls-1{fill:#2e81d5;}</style></defs><title>N1</title><g id="Capa_2" data-name="Capa 2"><g id="Capa_1-2" data-name="Capa 1"><path class="cls-1" d="M71.84,19.17a38.42,38.42,0,0,0-14-14A37.69,37.69,0,0,0,38.5,0,37.65,37.65,0,0,0,19.18,5.16a38.52,38.52,0,0,0-14,14A37.71,37.71,0,0,0,0,38.5,37.69,37.69,0,0,0,5.16,57.83a38.44,38.44,0,0,0,14,14A37.65,37.65,0,0,0,38.5,77a37.69,37.69,0,0,0,19.33-5.16,38.34,38.34,0,0,0,14-14A37.69,37.69,0,0,0,77,38.5,37.71,37.71,0,0,0,71.84,19.17ZM68,51A31.59,31.59,0,0,1,51,68,31.72,31.72,0,0,1,26,68,31.67,31.67,0,0,1,9,51,31.72,31.72,0,0,1,9,26,31.76,31.76,0,0,1,26,9,31.72,31.72,0,0,1,51,9,31.67,31.67,0,0,1,68,26,31.6,31.6,0,0,1,68,51Z"/><path class="cls-1" d="M38.5,12.83a24.77,24.77,0,0,0-18.15,7.52A24.77,24.77,0,0,0,12.83,38.5a24.73,24.73,0,0,0,7.52,18.15A24.77,24.77,0,0,0,38.5,64.17a24.73,24.73,0,0,0,18.15-7.52A24.73,24.73,0,0,0,64.17,38.5a24.77,24.77,0,0,0-7.52-18.15A24.73,24.73,0,0,0,38.5,12.83ZM52.11,52.11A18.54,18.54,0,0,1,38.5,57.75a18.55,18.55,0,0,1-13.61-5.64A18.55,18.55,0,0,1,19.25,38.5a18.55,18.55,0,0,1,5.64-13.61A18.55,18.55,0,0,1,38.5,19.25a18.54,18.54,0,0,1,13.61,5.64A18.55,18.55,0,0,1,57.75,38.5,18.55,18.55,0,0,1,52.11,52.11Z"/><path class="cls-1" d="M38.5,25.67A12.84,12.84,0,0,0,25.67,38.5,12.84,12.84,0,0,0,38.5,51.33,12.84,12.84,0,0,0,51.34,38.5,12.84,12.84,0,0,0,38.5,25.67Z"/></g></g></svg>