<svg xmlns="http://www.w3.org/2000/svg" viewBox="0 0 84.01 84.01"><defs><style>.cls-1{fill:#06c;}</style></defs><title>N3</title><g id="Capa_2" data-name="Capa 2"><g id="Capa_1-2" data-name="Capa 1"><path class="cls-1" d="M46.11,50.66a24.59,24.59,0,0,1-8.21,0A23.9,23.9,0,0,0,42,75.83,23.9,23.9,0,0,0,46.11,50.66Z"/><path class="cls-1" d="M62.67,36.16a23.72,23.72,0,0,0-18.55,5.9,26.6,26.6,0,0,1,3.68,5.2A24,24,0,0,0,62.67,36.16Z"/><path class="cls-1" d="M39.35,47.86a23.57,23.57,0,0,0,5.31,0A22.83,22.83,0,0,0,42,44.19,23.52,23.52,0,0,0,39.35,47.86Z"/><path class="cls-1" d="M24,33a26.86,26.86,0,0,1,18,6.93,26.42,26.42,0,0,1,22.1-6.59,24,24,0,1,0-44.21,0A26.89,26.89,0,0,1,24,33Z"/><path class="cls-1" d="M24,84A23.87,23.87,0,0,0,39.89,78a26.79,26.79,0,0,1-5-27.91,27.12,27.12,0,0,1-16.73-13.3A24,24,0,0,0,24,84Z"/><path class="cls-1" d="M49.08,50A26.79,26.79,0,0,1,44.13,78,24,24,0,1,0,65.8,36.74,27.1,27.1,0,0,1,49.08,50Z"/><path class="cls-1" d="M21.35,36.16a24,24,0,0,0,14.86,11.1,27,27,0,0,1,3.68-5.2A23.69,23.69,0,0,0,21.35,36.16Z"/></g></g></svg>