<svg xmlns="http://www.w3.org/2000/svg" viewBox="0 0 80 67.57"><defs><style>.cls-1{fill:#fb4851;}</style></defs><title>N4</title><g id="Capa_2" data-name="Capa 2"><g id="Capa_1-2" data-name="Capa 1"><path class="cls-1" d="M49.86,62.86a5.07,5.07,0,0,1-1.5-3.61V55.92H45.05a5.1,5.1,0,0,1-5.11-5.11V41.5a5.11,5.11,0,0,1,5.11-5.11h3.3V33.07A5.13,5.13,0,0,1,53.47,28h9.28a5.12,5.12,0,0,1,5.11,5.11v3.32h3.3a5.12,5.12,0,0,1,3.62,1.5,6.06,6.06,0,0,1,.47.56A33.08,33.08,0,0,0,80,21.88,21.91,21.91,0,0,0,58.12,0C52.71,0,47.48,3.35,42.56,10c-1,1.31-1.83,2.61-2.56,3.8-.73-1.19-1.59-2.49-2.56-3.8C32.52,3.35,27.29,0,21.88,0A21.91,21.91,0,0,0,0,21.88c0,6.26,2.05,12.57,6.08,18.76a65.81,65.81,0,0,0,12.77,14A101.81,101.81,0,0,0,37.11,66.92a6.75,6.75,0,0,0,5.78,0c.2-.1,3-1.51,7-4Z"/><path class="cls-1" d="M62.75,31.68H53.47A1.34,1.34,0,0,0,52.13,33v5.75a1.35,1.35,0,0,1-1.35,1.34H45.06a1.36,1.36,0,0,0-1.35,1.35v9.31a1.36,1.36,0,0,0,1.34,1.35h5.73a1.34,1.34,0,0,1,1.34,1.34V59.2a1.36,1.36,0,0,0,1.35,1.35h9.28a1.35,1.35,0,0,0,1.34-1.35V53.46a1.36,1.36,0,0,1,1.35-1.35h5.72a1.36,1.36,0,0,0,1.35-1.35V41.45a1.35,1.35,0,0,0-1.35-1.34H65.44a1.36,1.36,0,0,1-1.35-1.35V33A1.35,1.35,0,0,0,62.75,31.68Z"/></g></g></svg>