<svg xmlns="http://www.w3.org/2000/svg" viewBox="0 0 120.33 155.34"><defs><style>.cls-1{fill:#fb4851;}</style></defs><title>TelR</title><g id="Capa_2" data-name="Capa 2"><g id="Capa_1-2" data-name="Capa 1"><path class="cls-1" d="M108.89,146.13c-10,9.89-19.46,11.83-31,5.74-39-20.62-64.07-52.21-73.84-95.45C2.34,48.84,2.12,40.91.5,33.3-1.44,24.19,2.41,17.79,9,12.43c2.93-2.39,6.24-4.32,10.25-7C21,10.8,22.62,15.4,24,20.05c2.43,8,4.9,15.89,7,23.93.41,1.57-.8,3.59-1.35,5.38S27.43,53.47,28,54.9c7.95,21.39,18,41.56,35.56,57,2.55,2.23,4.91,4.55,8.82,2.89.78-.33,2.36.26,3.12.94C86.56,125.7,97.58,135.8,108.89,146.13Z"/><path class="cls-1" d="M85.72,101.37c3,1.59,5.39,2.3,7.07,3.76,8.5,7.42,17,14.85,25.16,22.67,4.5,4.32,2.25,12.57-3.7,14.8-.9.34-2.58-.3-3.41-1-10.78-9.62-21.51-19.3-32.09-29.15-.83-.77-1.06-3.54-.37-4.35C80.53,105.55,83.26,103.54,85.72,101.37Z"/><path class="cls-1" d="M50.13,36.72c0,5-8.1,10.84-12.38,9.36a3.56,3.56,0,0,1-1.68-2.16Q30.19,24.9,24.5,5.83A3.68,3.68,0,0,1,25,2.76C29.54-2,38.36-.36,40.6,5.88c2.91,8.11,5.33,16.41,7.9,24.64C49.2,32.73,49.69,35,50.13,36.72Z"/></g></g></svg>