<svg xmlns="http://www.w3.org/2000/svg" viewBox="0 0 271.8 222.1"><defs><style>.cls-1{fill:#06c;}</style></defs><title>Tw</title><g id="Capa_2" data-name="Capa 2"><g id="Capa_1-2" data-name="Capa 1"><path class="cls-1" d="M18.24,10.41c30.36,35.43,68.35,55,114.07,58.26.49-8.51-.11-16.85,1.6-24.69,9.23-42.28,60.3-58.32,92.28-29.16,2.45,2.23,4.59,2.91,7.53,1.86C243.81,13.06,253.91,9.45,263.58,6c-.86,7.14-6.18,14.32-22.42,29,4.07-.75,7.16-1.21,10.2-1.92,3.39-.78,6.75-1.71,10.08-2.72,3.11-.94,6.17-2.06,10.36-3.47a96.69,96.69,0,0,1-22.48,24.4c-3.65,2.75-4.81,5.61-4.92,10.22C243,120.74,218.23,167.63,168,199.57,137.6,218.94,103.43,224.77,67.67,221A154,154,0,0,1,3.79,199.63c-1-.62-2-1.38-3.79-2.67,30.51,2.81,57.07-4.68,81.94-23.13-12.63-1.08-23.3-4.5-32.51-11.54A55.12,55.12,0,0,1,30,134.77H52.84l.24-1.18c-26.71-8.56-41.18-26.56-43-55,4.36,1.61,8.1,3.29,12,4.37a59.8,59.8,0,0,0,11.82,1.76C22.85,75.57,15,64.63,12,50.63A55.2,55.2,0,0,1,18.24,10.41Z"/></g></g></svg>