<svg xmlns="http://www.w3.org/2000/svg" viewBox="0 0 104.62 66.04"><defs><style>.cls-1{fill:#2e81d5;}</style></defs><title>Asesoria</title><g id="Capa_2" data-name="Capa 2"><g id="Capa_1-2" data-name="Capa 1"><path class="cls-1" d="M78.18,20.33c4.26,0,8.44-5.89,8.44-11.89C86.62,3.31,83.31,0,78.18,0s-8.44,3.31-8.44,8.44C69.74,14.44,73.92,20.33,78.18,20.33Z"/><path class="cls-1" d="M75.24,23.68a7.57,7.57,0,0,1-1.52,4.16,4.47,4.47,0,0,0,8.93,0,7.42,7.42,0,0,1-1.52-4.16,8.92,8.92,0,0,1-5.89,0Z"/><path class="cls-1" d="M95.89,37.26a8.49,8.49,0,0,0-6.47-6.71l-3.17-.79a8.32,8.32,0,0,1-16.14,0L67,30.55a8.52,8.52,0,0,0-6.48,6.71c-.16,1.09-.35,2.8-.55,4.7H96.45C96.25,40.06,96.05,38.35,95.89,37.26Z"/><path class="cls-1" d="M43.77,37.26a8.52,8.52,0,0,0-6.47-6.71l-3.17-.79a8.32,8.32,0,0,1-16.14,0l-3.17.79a8.51,8.51,0,0,0-6.47,6.71c-.16,1.09-.36,2.8-.56,4.7H44.32C44.12,40.06,43.93,38.35,43.77,37.26Z"/><path class="cls-1" d="M23.11,23.68a7.42,7.42,0,0,1-1.52,4.16,4.47,4.47,0,0,0,8.93,0A7.57,7.57,0,0,1,29,23.68a8.92,8.92,0,0,1-5.89,0Z"/><path class="cls-1" d="M26.06,20.33c4.26,0,8.44-5.89,8.44-11.89C34.5,3.31,31.18,0,26.06,0s-8.44,3.31-8.44,8.44C17.62,14.44,21.8,20.33,26.06,20.33Z"/><path class="cls-1" d="M102.7,62.19H98l1.37-13.31a2.7,2.7,0,0,0-.7-2.15,2.76,2.76,0,0,0-2.07-.92H59.71a2.8,2.8,0,0,0-2.77,3.07l1.35,13.31H45.92l1.37-13.31a2.78,2.78,0,0,0-2.77-3.07H7.59a2.78,2.78,0,0,0-2.77,3.07L6.16,62.19H1.92a1.93,1.93,0,0,0,0,3.85H102.7a1.93,1.93,0,0,0,0-3.85Z"/></g></g></svg>