<svg xmlns="http://www.w3.org/2000/svg" viewBox="0 0 58.25 81.04"><defs><style>.cls-1{fill:#2e81d5;}</style></defs><title>Dcontroles</title><g id="Capa_2" data-name="Capa 2"><g id="Capa_1-2" data-name="Capa 1"><path class="cls-1" d="M33.61,30.64a2.24,2.24,0,1,0,2.24,2.24A2.24,2.24,0,0,0,33.61,30.64Z"/><path class="cls-1" d="M15.68,48.56a2.24,2.24,0,1,0,2.24,2.24A2.25,2.25,0,0,0,15.68,48.56Z"/><path class="cls-1" d="M20,13.72H38.27a1.9,1.9,0,0,0,1.9-1.89V4.92H34A2.24,2.24,0,0,1,31.8,2.68a2.68,2.68,0,0,0-5.36,0A2.24,2.24,0,0,1,24.2,4.92H18.08v6.91A1.9,1.9,0,0,0,20,13.72Z"/><path class="cls-1" d="M56,8.24H44.65v3.59a6.38,6.38,0,0,1-6.38,6.37H20a6.38,6.38,0,0,1-6.38-6.37V8.24H2.24A2.24,2.24,0,0,0,0,10.48V78.8A2.24,2.24,0,0,0,2.24,81H56a2.24,2.24,0,0,0,2.24-2.24V10.48A2.24,2.24,0,0,0,56,8.24ZM42.57,57.52a6.72,6.72,0,0,1-4.31-11.87l-3.88-6.1a6.49,6.49,0,0,1-.77.05,6.71,6.71,0,0,1-2.9-.66l-9,9a6.73,6.73,0,0,1-6.07,9.61,6.72,6.72,0,1,1,2.9-12.78l9-9a6.73,6.73,0,1,1,10.88,1.78l4.15,6.52a6.72,6.72,0,1,1,0,13.44Z"/><path class="cls-1" d="M42.57,48.56a2.24,2.24,0,1,0,2.24,2.24A2.24,2.24,0,0,0,42.57,48.56Z"/></g></g></svg>