<svg xmlns="http://www.w3.org/2000/svg" viewBox="0 0 384.77 389.62"><defs><style>.cls-1{fill:#1d1c1d;fill-rule:evenodd;}</style></defs><title>Favicon</title><g id="Capa_2" data-name="Capa 2"><g id="Capa_1-2" data-name="Capa 1"><path class="cls-1" d="M365.53,93.6V19.48h-73.2V0H92.43V19.48H19.24V93.6H0V296H19.24v74.12H92.43v19.48h199.9V370.14h73.2V296h19.24V93.6ZM58,194.39c0-68.7,50.17-125.53,115.43-135V108.9c-38.56,8.86-67.33,43.77-67.33,85.49a88.4,88.4,0,0,0,3.82,25.83L67.59,245A137.37,137.37,0,0,1,58,194.39ZM192.68,330.76A133.8,133.8,0,0,1,86.84,278.71L129.17,254a85.84,85.84,0,0,0,126.88.15l42.35,24.75A133.82,133.82,0,0,1,192.68,330.76Zm125-85.6-42.33-24.75a88.65,88.65,0,0,0,3.88-26c0-41.72-28.78-76.63-67.33-85.49V59.41c65.26,9.45,115.43,66.28,115.43,135A137.55,137.55,0,0,1,317.7,245.16Z"/></g></g></svg>