<svg xmlns="http://www.w3.org/2000/svg" viewBox="0 0 297 269.46"><defs><style>.cls-1{fill:#2e81d5;}</style></defs><title>mapa1</title><g id="Capa_2" data-name="Capa 2"><g id="Capa_1-2" data-name="Capa 1"><path class="cls-1" d="M198.51,141.64A290.35,290.35,0,0,1,165,179,24.95,24.95,0,0,1,132,179a290.35,290.35,0,0,1-33.54-37.38H40.75a10,10,0,0,0-9.58,7.23L.38,256.76A10,10,0,0,0,10,269.46H287a10,10,0,0,0,9.59-12.7L265.83,148.87a10,10,0,0,0-9.58-7.23ZM71.92,219.41a8,8,0,1,1-11.27-11.28,8,8,0,0,1,11.27,0,8,8,0,0,1,0,11.28ZM88.32,210a8,8,0,1,1,4.92-10.14A8,8,0,0,1,88.32,210Zm19.62-2.79h-.35a7.91,7.91,0,1,1,.35,0Zm29.41-.33a8,8,0,1,1-4.55-10.31A8,8,0,0,1,137.35,206.85Zm19.19,12a8,8,0,1,1-2.47-11A8,8,0,0,1,156.54,218.88Zm22,5.12a8,8,0,0,1-7.86,6.73,7.66,7.66,0,0,1-1.26-.11,8,8,0,1,1,9.12-6.62Zm16.63,5.05a7.77,7.77,0,0,1-2.11.29A8,8,0,0,1,191,213.68h0a8,8,0,1,1,4.24,15.37Zm22.67-10.48a8,8,0,0,1-8.73-13.34h0a8,8,0,1,1,8.72,13.34ZM236.36,203a8,8,0,1,1,2.33-5.64A8.05,8.05,0,0,1,236.36,203Z"/><path class="cls-1" d="M142.57,167.05a9,9,0,0,0,11.86,0c2.37-2.09,58-51.72,58-103a64,64,0,1,0-128,0C84.52,115.33,140.2,165,142.57,167.05ZM124.68,64A23.82,23.82,0,1,1,148.5,88,23.91,23.91,0,0,1,124.68,64Z"/></g></g></svg>